<svg xmlns="http://www.w3.org/2000/svg" style="display: none;">
  <!-- Lightning Icon (Consegna Rapida) -->
  <symbol id="icon-lightning" viewBox="0 0 24 24" fill="none" stroke="currentColor" stroke-width="2" stroke-linecap="round" stroke-linejoin="round">
    <polygon points="13 2 3 14 12 14 11 22 21 10 12 10 13 2"></polygon>
  </symbol>

  <!-- Sparkles Icon (Personalizzato) -->
  <symbol id="icon-sparkles" viewBox="0 0 24 24" fill="none" stroke="currentColor" stroke-width="2" stroke-linecap="round" stroke-linejoin="round">
    <path d="M12 3v1m0 16v1m9-9h-1M4 12H3m15.364 6.364l-.707-.707M6.343 6.343l-.707-.707m12.728 0l-.707.707M6.343 17.657l-.707.707M16 8a3 3 0 1 1-6 0 3 3 0 0 1 6 0zM8 16a3 3 0 1 1-6 0 3 3 0 0 1 6 0zM22 16a3 3 0 1 1-6 0 3 3 0 0 1 6 0z"></path>
  </symbol>

  <!-- Message Icon (Supporto) -->
  <symbol id="icon-message" viewBox="0 0 24 24" fill="none" stroke="currentColor" stroke-width="2" stroke-linecap="round" stroke-linejoin="round">
    <path d="M21 15a2 2 0 0 1-2 2H7l-4 4V5a2 2 0 0 1 2-2h14a2 2 0 0 1 2 2z"></path>
  </symbol>

  <!-- Tree Icon (Natale) -->
  <symbol id="icon-tree" viewBox="0 0 24 24" fill="none" stroke="currentColor" stroke-width="2" stroke-linecap="round" stroke-linejoin="round">
    <path d="M12 3L4 11h4v8h8v-8h4L12 3z"></path>
    <line x1="12" y1="19" x2="12" y2="21"></line>
  </symbol>

  <!-- Gift Icon (Regali) -->
  <symbol id="icon-gift" viewBox="0 0 24 24" fill="none" stroke="currentColor" stroke-width="2" stroke-linecap="round" stroke-linejoin="round">
    <polyline points="20 12 20 22 4 22 4 12"></polyline>
    <rect x="2" y="7" width="20" height="5"></rect>
    <line x1="12" y1="22" x2="12" y2="7"></line>
    <path d="M12 7H7.5a2.5 2.5 0 0 1 0-5C11 2 12 7 12 7z"></path>
    <path d="M12 7h4.5a2.5 2.5 0 0 0 0-5C13 2 12 7 12 7z"></path>
  </symbol>

  <!-- Home Icon (Casa & Design) -->
  <symbol id="icon-home" viewBox="0 0 24 24" fill="none" stroke="currentColor" stroke-width="2" stroke-linecap="round" stroke-linejoin="round">
    <path d="M3 9l9-7 9 7v11a2 2 0 0 1-2 2H5a2 2 0 0 1-2-2z"></path>
    <polyline points="9 22 9 12 15 12 15 22"></polyline>
  </symbol>

  <!-- Gamepad Icon (Gaming) -->
  <symbol id="icon-gamepad" viewBox="0 0 24 24" fill="none" stroke="currentColor" stroke-width="2" stroke-linecap="round" stroke-linejoin="round">
    <line x1="6" y1="12" x2="10" y2="12"></line>
    <line x1="8" y1="10" x2="8" y2="14"></line>
    <line x1="15" y1="13" x2="15.01" y2="13"></line>
    <line x1="18" y1="11" x2="18.01" y2="11"></line>
    <rect x="2" y="6" width="20" height="12" rx="2"></rect>
  </symbol>

  <!-- Tool Icon (Ricambi) -->
  <symbol id="icon-tool" viewBox="0 0 24 24" fill="none" stroke="currentColor" stroke-width="2" stroke-linecap="round" stroke-linejoin="round">
    <path d="M14.7 6.3a1 1 0 0 0 0 1.4l1.6 1.6a1 1 0 0 0 1.4 0l3.77-3.77a6 6 0 0 1-7.94 7.94l-6.91 6.91a2.12 2.12 0 0 1-3-3l6.91-6.91a6 6 0 0 1 7.94-7.94l-3.76 3.76z"></path>
  </symbol>

  <!-- Stars Icon (Custom) -->
  <symbol id="icon-stars" viewBox="0 0 24 24" fill="none" stroke="currentColor" stroke-width="2" stroke-linecap="round" stroke-linejoin="round">
    <polygon points="12 2 15.09 8.26 22 9.27 17 14.14 18.18 21.02 12 17.77 5.82 21.02 7 14.14 2 9.27 8.91 8.26 12 2"></polygon>
  </symbol>

  <!-- Chat Icon (Contattaci) -->
  <symbol id="icon-chat" viewBox="0 0 24 24" fill="none" stroke="currentColor" stroke-width="2" stroke-linecap="round" stroke-linejoin="round">
    <path d="M21 11.5a8.38 8.38 0 0 1-.9 3.8 8.5 8.5 0 0 1-7.6 4.7 8.38 8.38 0 0 1-3.8-.9L3 21l1.9-5.7a8.38 8.38 0 0 1-.9-3.8 8.5 8.5 0 0 1 4.7-7.6 8.38 8.38 0 0 1 3.8-.9h.5a8.48 8.48 0 0 1 8 8v.5z"></path>
  </symbol>

  <!-- DollarSign Icon (Preventivo) -->
  <symbol id="icon-dollar" viewBox="0 0 24 24" fill="none" stroke="currentColor" stroke-width="2" stroke-linecap="round" stroke-linejoin="round">
    <line x1="12" y1="1" x2="12" y2="23"></line>
    <path d="M17 5H9.5a3.5 3.5 0 0 0 0 7h5a3.5 3.5 0 0 1 0 7H6"></path>
  </symbol>

  <!-- Printer Icon (Stampiamo) -->
  <symbol id="icon-printer" viewBox="0 0 24 24" fill="none" stroke="currentColor" stroke-width="2" stroke-linecap="round" stroke-linejoin="round">
    <polyline points="6 9 6 2 18 2 18 9"></polyline>
    <path d="M6 18H4a2 2 0 0 1-2-2v-5a2 2 0 0 1 2-2h16a2 2 0 0 1 2 2v5a2 2 0 0 1-2 2h-2"></path>
    <rect x="6" y="14" width="12" height="8"></rect>
  </symbol>

  <!-- Truck Icon (Consegna) -->
  <symbol id="icon-truck" viewBox="0 0 24 24" fill="none" stroke="currentColor" stroke-width="2" stroke-linecap="round" stroke-linejoin="round">
    <rect x="1" y="3" width="15" height="13"></rect>
    <polygon points="16 8 20 8 23 11 23 16 16 16 16 8"></polygon>
    <circle cx="5.5" cy="18.5" r="2.5"></circle>
    <circle cx="18.5" cy="18.5" r="2.5"></circle>
  </symbol>

  <!-- Mail Icon (Email) -->
  <symbol id="icon-mail" viewBox="0 0 24 24" fill="none" stroke="currentColor" stroke-width="2" stroke-linecap="round" stroke-linejoin="round">
    <path d="M4 4h16c1.1 0 2 .9 2 2v12c0 1.1-.9 2-2 2H4c-1.1 0-2-.9-2-2V6c0-1.1.9-2 2-2z"></path>
    <polyline points="22,6 12,13 2,6"></polyline>
  </symbol>

  <!-- Phone Icon (WhatsApp) -->
  <symbol id="icon-phone" viewBox="0 0 24 24" fill="none" stroke="currentColor" stroke-width="2" stroke-linecap="round" stroke-linejoin="round">
    <path d="M22 16.92v3a2 2 0 0 1-2.18 2 19.79 19.79 0 0 1-8.63-3.07 19.5 19.5 0 0 1-6-6 19.79 19.79 0 0 1-3.07-8.67A2 2 0 0 1 4.11 2h3a2 2 0 0 1 2 1.72 12.84 12.84 0 0 0 .7 2.81 2 2 0 0 1-.45 2.11L8.09 9.91a16 16 0 0 0 6 6l1.27-1.27a2 2 0 0 1 2.11-.45 12.84 12.84 0 0 0 2.81.7A2 2 0 0 1 22 16.92z"></path>
  </symbol>

  <!-- Clock Icon (Orari) -->
  <symbol id="icon-clock" viewBox="0 0 24 24" fill="none" stroke="currentColor" stroke-width="2" stroke-linecap="round" stroke-linejoin="round">
    <circle cx="12" cy="12" r="10"></circle>
    <polyline points="12 6 12 12 16 14"></polyline>
  </symbol>

  <!-- Smartphone Icon -->
  <symbol id="icon-smartphone" viewBox="0 0 24 24" fill="none" stroke="currentColor" stroke-width="2" stroke-linecap="round" stroke-linejoin="round">
    <rect x="5" y="2" width="14" height="20" rx="2" ry="2"></rect>
    <line x1="12" y1="18" x2="12.01" y2="18"></line>
  </symbol>

  <!-- Box Icon (Organizer) -->
  <symbol id="icon-box" viewBox="0 0 24 24" fill="none" stroke="currentColor" stroke-width="2" stroke-linecap="round" stroke-linejoin="round">
    <path d="M21 16V8a2 2 0 0 0-1-1.73l-7-4a2 2 0 0 0-2 0l-7 4A2 2 0 0 0 3 8v8a2 2 0 0 0 1 1.73l7 4a2 2 0 0 0 2 0l7-4A2 2 0 0 0 21 16z"></path>
    <polyline points="3.27 6.96 12 12.01 20.73 6.96"></polyline>
    <line x1="12" y1="22.08" x2="12" y2="12"></line>
  </symbol>

  <!-- Dice Icon (Gaming) -->
  <symbol id="icon-dice" viewBox="0 0 24 24" fill="none" stroke="currentColor" stroke-width="2" stroke-linecap="round" stroke-linejoin="round">
    <rect x="3" y="3" width="18" height="18" rx="2" ry="2"></rect>
    <circle cx="8.5" cy="8.5" r="1"></circle>
    <circle cx="15.5" cy="8.5" r="1"></circle>
    <circle cx="8.5" cy="15.5" r="1"></circle>
    <circle cx="15.5" cy="15.5" r="1"></circle>
    <circle cx="12" cy="12" r="1"></circle>
  </symbol>

  <!-- Flame Icon (Candela) -->
  <symbol id="icon-flame" viewBox="0 0 24 24" fill="none" stroke="currentColor" stroke-width="2" stroke-linecap="round" stroke-linejoin="round">
    <path d="M12 2c3 5.5 3 11-3 13 4.5-3 6-7 3-11-2 3-3.5 3.5-5 6 0-4-3-7-3-10 0 0-3 3-3 8 0 5 4 9 9 9s9-4 9-9c0-3-1-5-4-6z"></path>
  </symbol>
</svg>
